<?xml version="1.0" encoding="UTF-8"?>
<svg id="Layer_2" data-name="Layer 2" xmlns="http://www.w3.org/2000/svg" viewBox="0 0 1904.45 1882.08">
  <defs>
    <style>
      .cls-1 {
        fill: #2555bf;
      }

      .cls-2 {
        fill: #4389ed;
      }
    </style>
  </defs>
  <g id="objects">
    <g>
      <path class="cls-1" d="m1904.45,1082.67v629.41c0,93.89-76.11,170-170,170h-629.41c-15.08,0-27.31-12.23-27.31-27.31v-236.91c0-19.53,19.87-32.68,37.9-25.17,16.41,6.84,34.47,10.51,53.41,10.26,72.73-.97,131.88-60.49,132.41-133.23.54-74.6-59.76-135.24-134.24-135.24-18.26,0-35.68,3.65-51.55,10.25-18.04,7.51-37.94-5.45-37.94-24.99v-237.06c0-15.08,12.23-27.31,27.31-27.31h229.34c17.75,0,31,16.67,26.62,33.87-2.83,11.12-4.28,22.79-4.14,34.82.83,72.83,60.39,132.14,133.23,132.67,74.6.54,135.24-59.76,135.24-134.24,0-11.36-1.41-22.39-4.07-32.93-4.37-17.33,8.55-34.19,26.43-34.19h229.44c15.08,0,27.31,12.23,27.31,27.31Z"/>
      <path class="cls-1" d="m0,799.41V170C0,76.11,76.11,0,170,0h629.41c15.08,0,27.31,12.23,27.31,27.31v236.91c0,19.53-19.87,32.68-37.9,25.17-16.41-6.84-34.47-10.51-53.41-10.26-72.73.97-131.88,60.49-132.41,133.23-.54,74.6,59.76,135.24,134.24,135.24,18.26,0,35.68-3.65,51.55-10.25,18.04-7.51,37.94,5.45,37.94,24.99v237.06c0,15.08-12.23,27.31-27.31,27.31h-229.34c-17.75,0-31-16.67-26.62-33.87,2.83-11.12,4.28-22.79,4.14-34.82-.83-72.83-60.39-132.14-133.23-132.67-74.6-.54-135.24,59.76-135.24,134.24,0,11.36,1.41,22.39,4.07,32.93,4.37,17.33-8.55,34.19-26.43,34.19H27.31c-15.08,0-27.31-12.23-27.31-27.31Z"/>
      <path class="cls-2" d="m1050.45,1469.72c-.53,72.73-59.68,132.26-132.41,133.23-18.97.25-37.06-3.43-53.49-10.29-17.99-7.51-37.83,5.63-37.83,25.12v237.04c0,15.05-12.2,27.26-27.26,27.26H170c-93.89,0-170-76.11-170-170v-629.46c0-15.05,12.2-27.26,27.26-27.26h229.39c17.75,0,31-16.67,26.62-33.87-2.83-11.12-4.28-22.79-4.14-34.82.83-72.83,60.4-132.14,133.23-132.67,74.6-.54,135.24,59.76,135.24,134.24,0,11.39-1.42,22.44-4.08,33-4.37,17.3,8.53,34.12,26.38,34.12h229.57c15.05,0,27.26,12.2,27.26,27.26v237.12c0,19.54,19.9,32.5,37.94,24.99,15.87-6.61,33.28-10.25,51.55-10.25,74.47,0,134.78,60.64,134.24,135.24Z"/>
      <path class="cls-2" d="m1877.19,826.72h-229.39c-17.75,0-31,16.67-26.61,33.87,2.83,11.12,4.28,22.79,4.14,34.82-.83,72.83-60.39,132.14-133.23,132.67-74.6.55-135.24-59.76-135.24-134.24,0-11.39,1.42-22.44,4.08-33,4.37-17.3-8.53-34.12-26.38-34.12h-229.57c-15.05,0-27.26-12.2-27.26-27.26v-237.04c0-19.49-19.84-32.63-37.83-25.12-16.43,6.86-34.52,10.54-53.49,10.29-72.73-.97-131.88-60.49-132.41-133.23-.54-74.6,59.76-135.24,134.24-135.24,18.26,0,35.68,3.65,51.55,10.25,18.04,7.51,37.94-5.45,37.94-24.99V27.26c0-15.05,12.2-27.26,27.26-27.26h629.46c93.89,0,170,76.11,170,170v629.46c0,15.05-12.2,27.26-27.26,27.26Z"/>
    </g>
  </g>
</svg>